<?xml version="1.0" encoding="utf-8"?>
<!-- Generator: Adobe Illustrator 23.0.1, SVG Export Plug-In . SVG Version: 6.00 Build 0)  -->
<svg version="1.1" id="Layer_1" xmlns="http://www.w3.org/2000/svg" xmlns:xlink="http://www.w3.org/1999/xlink" x="0px" y="0px"
	 viewBox="0 0 16 16" style="enable-background:new 0 0 16 16;" xml:space="preserve">
<style type="text/css">
	.st0{fill:#6282A3;}
</style>
<path class="st0" d="M13,2.1C9.8-0.7,4.9-0.3,2.1,3L1.6,3.6l0.2-3.4c0-0.1,0-0.1,0-0.1c0,0,0,0-0.1,0H0.1C0.1,0,0,0.1,0,0.1v6.5
	c0,0.1,0.1,0.1,0.1,0.1h6.5c0.1,0,0.1-0.1,0.1-0.1V5.1c0-0.1-0.1-0.1-0.1-0.1L2.8,5.1l0.3-0.4C4.2,3,6,2.1,8,2.1
	c2.8,0,5.1,1.9,5.8,4.5c0,0.1,0.1,0.1,0.1,0.1h1.6c0.1,0,0.1-0.1,0.1-0.2C15.3,4.8,14.3,3.3,13,2.1z M15.9,9.3H9.4
	c-0.1,0-0.1,0.1-0.1,0.1v1.5c0,0.1,0.1,0.1,0.1,0.1c0,0,0,0,0,0l3.8-0.2l-0.3,0.4c-0.8,1.2-2.1,2.1-3.5,2.5C6.2,14.5,3,12.6,2.2,9.4
	c0-0.1-0.1-0.1-0.1-0.1H0.5c-0.1,0-0.1,0-0.1,0.1c0,0,0,0.1,0,0.1c0.3,1.7,1.2,3.3,2.6,4.4c3.2,2.8,8.1,2.4,10.9-0.9l0.5-0.6
	l-0.2,3.4c0,0.1,0.1,0.1,0.1,0.1h1.5c0.1,0,0.1-0.1,0.1-0.1V9.4C16,9.3,15.9,9.3,15.9,9.3z"/>
</svg>
