<?xml version="1.0" encoding="utf-8"?>
<!-- Generator: Adobe Illustrator 23.0.1, SVG Export Plug-In . SVG Version: 6.00 Build 0)  -->
<svg version="1.1" id="Layer_1" xmlns="http://www.w3.org/2000/svg" xmlns:xlink="http://www.w3.org/1999/xlink" x="0px" y="0px"
	 viewBox="0 0 16 16" style="enable-background:new 0 0 16 16;" xml:space="preserve">
<style type="text/css">
	.st0{fill:#6282A3;}
</style>
<g id="random">
	<path class="st0" d="M14.8,2.7l-2.6-2.6C12.1,0,12,0,11.9,0c-0.1,0-0.2,0-0.3,0.1L9.1,2.7C9,2.8,8.9,2.9,8.9,3c0,0.1,0,0.2,0.1,0.3
		c0.1,0.1,0.2,0.1,0.3,0.1h1.7V5L9.4,6.6l1.3,1.2l2.2-2l0-2.3h1.7c0.1,0,0.2,0,0.3-0.1c0.1-0.1,0.1-0.2,0.1-0.3
		C14.9,2.9,14.9,2.8,14.8,2.7z M12.9,16l0-3.6L4.9,5V3.4h1.7c0.1,0,0.2,0,0.3-0.1C7,3.2,7,3.1,7,3c0-0.1,0-0.2-0.1-0.3L4.3,0.1
		C4.2,0,4.2,0,4.1,0C4,0,3.9,0,3.8,0.1L1.2,2.7C1.1,2.8,1.1,2.9,1.1,3c0,0.1,0,0.2,0.1,0.3c0.1,0.1,0.2,0.1,0.3,0.1h1.7v2.4l7.9,7.3
		V16L12.9,16z"/>
</g>
</svg>
