<?xml version="1.0" encoding="utf-8"?>
<!-- Generator: Adobe Illustrator 23.0.1, SVG Export Plug-In . SVG Version: 6.00 Build 0)  -->
<svg version="1.1" id="Layer_1" xmlns="http://www.w3.org/2000/svg" xmlns:xlink="http://www.w3.org/1999/xlink" x="0px" y="0px"
	 viewBox="0 0 16 16" style="enable-background:new 0 0 16 16;" xml:space="preserve">
<style type="text/css">
	.st0{clip-path:url(#SVGID_2_);}
	.st1{fill:#6282A3;}
</style>
<g>
	<defs>
		<rect id="SVGID_1_" width="16" height="16"/>
	</defs>
	<clipPath id="SVGID_2_">
		<use xlink:href="#SVGID_1_"  style="overflow:visible;"/>
	</clipPath>
	<g id="icon_setting" transform="translate(1.018 48)" class="st0">
		<path id="Path_108" class="st1" d="M12.3-42.8l1.1-2.1L12-46.3l-2.1,1.1c-0.3-0.2-0.7-0.3-1.1-0.4L8-48H6l-0.8,2.3
			c-0.3,0.1-0.7,0.2-1,0.4l-2.1-1.1l-1.5,1.5l1.1,2.1c-0.2,0.3-0.3,0.7-0.4,1L-1-41v2l2.3,0.8c0.1,0.4,0.3,0.7,0.4,1.1L0.6-35
			L2-33.6l2.1-1.1c0.3,0.2,0.7,0.3,1.1,0.4L6-32h2l0.8-2.3c0.4-0.1,0.7-0.3,1.1-0.4l2.1,1.1l1.4-1.4l-1.1-2.1
			c0.2-0.3,0.3-0.7,0.4-1.1L15-39v-2l-2.3-0.8C12.6-42.1,12.5-42.5,12.3-42.8z M7-37c-1.6,0-3-1.3-3-2.9c0,0,0-0.1,0-0.1
			c0-1.6,1.3-3,2.9-3c0,0,0.1,0,0.1,0c1.6,0,3,1.3,3,2.9c0,0,0,0.1,0,0.1c0,1.6-1.3,3-2.9,3C7.1-37,7-37,7-37z"/>
	</g>
</g>
</svg>
